<?xml version="1.0" encoding="UTF-8"?>
<svg id="Layer_1" data-name="Layer 1" xmlns="http://www.w3.org/2000/svg" viewBox="0 0 703.72 492.89">
  <defs>
    <style>
      .cls-1, .cls-2, .cls-3, .cls-4 {
        fill: #58bea8;
      }

      .cls-5 {
        fill: #5e889a;
      }

      .cls-6 {
        font-family: CocogooseProTrial-Darkmode, CocogooseProTrial;
        font-size: 91.6px;
      }

      .cls-2 {
        letter-spacing: -.05em;
      }

      .cls-7 {
        fill: #333587;
      }

      .cls-3 {
        font-family: CocogooseProTrial-Regular, CocogooseProTrial;
        font-size: 32.56px;
      }

      .cls-8 {
        fill: #4d6790;
      }

      .cls-4 {
        letter-spacing: 0em;
      }

      .cls-9 {
        fill: #6da1a1;
      }
    </style>
  </defs>
  <text class="cls-6" transform="translate(151.85 421.16)"><tspan class="cls-7" x="0" y="0">V</tspan><tspan class="cls-5" x="67.96" y="0">-</tspan><tspan class="cls-2" x="114.11" y="0">D</tspan><tspan class="cls-4" x="182.22" y="0">YNO</tspan></text>
  <path class="cls-1" d="M633.23,70.47l-9.89,32.5h-12.92l-30.93,101.68-9.83,32.29-3.72,12.23-4.71,15.47c-2.99,9.83-12.06,16.55-22.34,16.55h-16.7l9.75-32.02,3.74-12.23,9.82-32.29,30.95-101.68,9.89-32.5h46.9Z"/>
  <polygon class="cls-9" points="532.34 204.65 522.53 236.94 518.79 249.17 509.04 281.19 480.1 281.19 489.85 249.17 493.57 236.94 503.4 204.65 532.34 204.65"/>
  <polygon class="cls-5" points="489.89 204.65 480.07 236.94 476.33 249.17 466.59 281.19 443.08 281.19 452.82 249.17 456.54 236.94 466.38 204.65 489.89 204.65"/>
  <polygon class="cls-8" points="453.09 204.65 443.28 236.94 439.54 249.17 429.79 281.19 411.21 281.19 420.95 249.17 424.67 236.94 434.51 204.65 453.09 204.65"/>
  <path class="cls-7" d="M399.51,236.8l5.87-19.3c2.35-7.71,9.46-12.99,17.52-12.99h0l-9.83,32.29"/>
  <polygon class="cls-1" points="144.29 281.2 130.68 281.2 113.76 221.95 109.05 205.46 92.13 146.21 87.41 129.71 70.5 70.48 84.12 70.48 101.04 129.71 105.74 146.21 122.67 205.46 127.37 221.95 144.29 281.2"/>
  <polygon class="cls-1" points="206.03 281.2 171.04 281.2 154.13 221.95 149.41 205.46 132.49 146.21 127.78 129.71 110.86 70.48 145.85 70.48 162.76 129.71 167.48 146.21 184.39 205.46 189.11 221.95 206.03 281.2"/>
  <path class="cls-1" d="M483.75,96.79c0,14.52-11.81,26.3-26.38,26.3s-26.38-11.77-26.38-26.3,11.81-26.3,26.38-26.3,26.38,11.77,26.38,26.3ZM477.23,97.04c0-10.96-8.91-19.85-19.91-19.85s-19.91,8.89-19.91,19.85,8.91,19.85,19.91,19.85,19.91-8.89,19.91-19.85Z"/>
  <text class="cls-3" transform="translate(446.44 109.55)"><tspan x="0" y="0">R</tspan></text>
  <polygon class="cls-7" points="408.26 70.47 391.35 129.71 386.64 146.21 369.71 205.46 365.01 221.95 348.09 281.19 241.83 281.19 224.91 221.95 220.21 205.46 203.28 146.21 198.58 129.71 181.66 70.47 242.27 70.47 259.19 129.71 263.89 146.21 280.82 205.46 285.53 221.95 304.4 221.95 309.1 205.46 326.03 146.21 330.74 129.71 347.65 70.47 408.26 70.47"/>
</svg>