<?xml version="1.0" encoding="UTF-8"?>
<svg id="Layer_1" data-name="Layer 1" xmlns="http://www.w3.org/2000/svg" viewBox="0 0 703.71 351.69">
  <defs>
    <style>
      .cls-1, .cls-2 {
        fill: #58bea8;
      }

      .cls-3 {
        fill: #5e889a;
      }

      .cls-4 {
        fill: #333587;
      }

      .cls-2 {
        font-family: CocogooseProTrial-Regular, CocogooseProTrial;
        font-size: 32.56px;
      }

      .cls-5 {
        fill: #4d6790;
      }

      .cls-6 {
        fill: #6da1a1;
      }
    </style>
  </defs>
  <path class="cls-1" d="M633.22,70.47l-9.89,32.5h-12.92l-30.93,101.68-9.83,32.29-3.72,12.23-4.71,15.47c-2.99,9.83-12.06,16.55-22.34,16.55h-16.7l9.75-32.02,3.74-12.23,9.82-32.29,30.95-101.68,9.89-32.5h46.9Z"/>
  <polygon class="cls-6" points="532.34 204.65 522.52 236.94 518.78 249.17 509.04 281.2 480.1 281.2 489.84 249.17 493.56 236.94 503.4 204.65 532.34 204.65"/>
  <polygon class="cls-3" points="489.88 204.65 480.06 236.94 476.33 249.17 466.58 281.2 443.07 281.2 452.81 249.17 456.53 236.94 466.37 204.65 489.88 204.65"/>
  <polygon class="cls-5" points="453.09 204.65 443.27 236.94 439.53 249.17 429.79 281.2 411.2 281.2 420.95 249.17 424.67 236.94 434.5 204.65 453.09 204.65"/>
  <path class="cls-4" d="M399.5,236.8l5.87-19.3c2.35-7.71,9.46-12.99,17.52-12.99h0l-9.83,32.29"/>
  <polygon class="cls-1" points="144.28 281.2 130.67 281.2 113.76 221.95 109.04 205.46 92.12 146.21 87.41 129.71 70.49 70.48 84.11 70.48 101.03 129.71 105.73 146.21 122.66 205.46 127.37 221.95 144.28 281.2"/>
  <polygon class="cls-1" points="206.02 281.2 171.04 281.2 154.12 221.95 149.4 205.46 132.49 146.21 127.77 129.71 110.85 70.48 145.84 70.48 162.75 129.71 167.47 146.21 184.39 205.46 189.11 221.95 206.02 281.2"/>
  <path class="cls-1" d="M483.74,96.79c0,14.52-11.81,26.3-26.38,26.3s-26.38-11.77-26.38-26.3,11.81-26.3,26.38-26.3,26.38,11.77,26.38,26.3ZM477.22,97.04c0-10.96-8.91-19.85-19.91-19.85s-19.91,8.89-19.91,19.85,8.91,19.85,19.91,19.85,19.91-8.89,19.91-19.85Z"/>
  <text class="cls-2" transform="translate(446.43 109.55)"><tspan x="0" y="0">R</tspan></text>
  <polygon class="cls-4" points="408.26 70.47 391.34 129.71 386.63 146.21 369.71 205.46 365 221.95 348.09 281.2 241.82 281.2 224.91 221.95 220.2 205.46 203.27 146.21 198.57 129.71 181.65 70.47 242.26 70.47 259.18 129.71 263.88 146.21 280.81 205.46 285.52 221.95 304.39 221.95 309.1 205.46 326.02 146.21 330.73 129.71 347.65 70.47 408.26 70.47"/>
</svg>